<svg xmlns="http://www.w3.org/2000/svg" viewBox="0 0 32 32" width="20" height="20" style="border-color: rgba(0,0,0,0);border-width: bpx;border-style: undefined" filter="none">
    
    <g>
    <path d="M25.333 8h-10.667c-0.736 0-1.333 0.597-1.333 1.333v0 17.333h-8c-0.736 0-1.333-0.597-1.333-1.333v0-21.333c0-0.736 0.597-1.333 1.333-1.333v0h18.667c0.736 0 1.333 0.597 1.333 1.333v0 4zM17.333 10.667h10.667c0.736 0 1.333 0.597 1.333 1.333v0 16c0 0.736-0.597 1.333-1.333 1.333v0h-10.667c-0.736 0-1.333-0.597-1.333-1.333v0-16c0-0.736 0.597-1.333 1.333-1.333v0z" fill="rgba(255,255,255,1)"></path>
    </g>
  </svg>