<svg xmlns="http://www.w3.org/2000/svg" viewBox="0 0 173.22 30.43"><defs><style>.cls-1{fill:#0070ba;}</style></defs><g id="图层_2" data-name="图层 2"><g id="图层_1-2" data-name="图层 1"><path class="cls-1" d="M157.12,23.92h3.55a.22.22,0,0,1,.21.26l-.22,1.24a.33.33,0,0,0,.33.38h2.63a.32.32,0,0,0,.32-.27l.25-1.43a.23.23,0,0,1,.22-.18H168a.23.23,0,0,1,.22.26L168,25.42a.32.32,0,0,0,.32.38h2.63a.31.31,0,0,0,.32-.27l2-11.23a1,1,0,0,0-1-1.15H170.9l1.95-2.54a1,1,0,0,0,.19-.43l.14-.81a1,1,0,0,0-1-1.15H158.08a.52.52,0,0,0-.52.43L157.31,10a.34.34,0,0,0,.33.39h11.07a.22.22,0,0,1,.17.35l-1.83,2.38h-4.88l-.24-1.09a.32.32,0,0,0-.31-.26l-3.13,0a.33.33,0,0,0-.33.4l.21,1h-2a1,1,0,0,0-1,.81l-2,11.46a.33.33,0,0,0,.32.38h2.63a.33.33,0,0,0,.33-.27l.25-1.43A.22.22,0,0,1,157.12,23.92Zm.25-2.45.29-1.64a.22.22,0,0,1,.22-.18h3.54a.21.21,0,0,1,.21.25l-.28,1.64a.22.22,0,0,1-.22.19h-3.54A.23.23,0,0,1,157.37,21.47Zm7.29,0,.28-1.64a.22.22,0,0,1,.22-.18h3.54a.22.22,0,0,1,.22.25l-.29,1.64a.22.22,0,0,1-.22.19h-3.54A.22.22,0,0,1,164.66,21.47Zm5-5.87-.3,1.67a.21.21,0,0,1-.21.18h-3.55a.22.22,0,0,1-.21-.26l.29-1.66a.22.22,0,0,1,.22-.18h3.54A.22.22,0,0,1,169.68,15.6Zm-7.8,1.85h-3.54a.21.21,0,0,1-.21-.26l.29-1.66a.22.22,0,0,1,.22-.18h3.54a.21.21,0,0,1,.21.25l-.29,1.67A.22.22,0,0,1,161.88,17.45Z"/><path class="cls-1" d="M151.39,27.21a.32.32,0,0,1-.32-.38l1.68-9.54.28-1.6a1,1,0,0,0-1-1.16h-3.35a.33.33,0,0,0-.32.28L148,16.9a.33.33,0,0,0,.32.39h.5a.32.32,0,0,1,.32.38l-1.63,9.27a.32.32,0,0,1-.32.27h-.73a.32.32,0,0,0-.32.27l-.37,2.09a.33.33,0,0,0,.32.39h24.47a.34.34,0,0,0,.33-.27l.37-2.09a.34.34,0,0,0-.33-.39Z"/><path class="cls-1" d="M153.88,8.22H151a.9.9,0,0,0-.9.75l-.45,2.44a.3.3,0,0,0,.3.36h2.91a.9.9,0,0,0,.89-.74l.46-2.45A.31.31,0,0,0,153.88,8.22Z"/><path class="cls-1" d="M134.82,7.09h-3.15a1,1,0,0,0-1,.83l-.12.72h-9.23a1,1,0,0,0-1,.83L120,11.38l-.22,1.23a.34.34,0,0,0,.33.39h3.17a.33.33,0,0,0,.33-.27l.18-1.07a.34.34,0,0,1,.33-.28h16.16a.34.34,0,0,1,.33.4l-.15.83a.33.33,0,0,0,.33.39H144a.33.33,0,0,0,.33-.27l.23-1.35.28-1.57a1,1,0,0,0-1-1.17H135l.2-1.16A.33.33,0,0,0,134.82,7.09Z"/><path class="cls-1" d="M137.71,26.07l.21,1.14h-6.07a.33.33,0,0,1-.33-.39l.59-3.31a.34.34,0,0,1,.33-.28h9.39a.32.32,0,0,0,.33-.27l.37-2.08a.33.33,0,0,0-.33-.39h-9.15a.34.34,0,0,1-.33-.4l.45-2.53a.34.34,0,0,1,.33-.28h9.4a.32.32,0,0,0,.32-.28l.37-2.07a.34.34,0,0,0-.33-.4H120.09a.34.34,0,0,0-.33.28l-.37,2.08a.34.34,0,0,0,.33.39H129a.34.34,0,0,1,.33.4l-.46,2.53a.34.34,0,0,1-.33.28H119a.33.33,0,0,0-.33.27l-.37,2.08a.33.33,0,0,0,.33.39h9.26a.35.35,0,0,1,.33.4l-.59,3.31a.33.33,0,0,1-.33.27H117.5a.34.34,0,0,0-.33.28l-.37,2.08a.34.34,0,0,0,.33.39H141a.32.32,0,0,0,.32-.27l.42-2.39a.25.25,0,0,0,0-.17L141.48,26a.33.33,0,0,0-.32-.27H138A.33.33,0,0,0,137.71,26.07Z"/><path class="cls-1" d="M24.47,16.1A11.94,11.94,0,0,1,26.73,12a11,11,0,0,1,3.74-2.82,11.87,11.87,0,0,1,5.05-1,13.79,13.79,0,0,1,4.13.58,8.75,8.75,0,0,1,3.21,1.75A8.2,8.2,0,0,1,45,13.32a10.61,10.61,0,0,1,.88,3.94,15.18,15.18,0,0,1-.61,5,12.33,12.33,0,0,1-2.19,4.21,10.61,10.61,0,0,1-3.71,2.88,12,12,0,0,1-5.17,1.06A10.77,10.77,0,0,1,26.71,28a9.49,9.49,0,0,1-2.88-7A14.05,14.05,0,0,1,24.47,16.1Zm4.74,7a5.39,5.39,0,0,0,1,1.72,4.62,4.62,0,0,0,1.6,1.2,5.54,5.54,0,0,0,2.29.44,5.75,5.75,0,0,0,3.1-.81,6.92,6.92,0,0,0,2.14-2.1,9.17,9.17,0,0,0,1.23-2.84,10.85,10.85,0,0,0,.32-3.07,8.39,8.39,0,0,0-.35-2.11,4.78,4.78,0,0,0-.93-1.72A4.42,4.42,0,0,0,38,12.6a5.35,5.35,0,0,0-2.31-.44A6.12,6.12,0,0,0,32.5,13a6.68,6.68,0,0,0-2.17,2.09,9.22,9.22,0,0,0-1.2,2.86,11.7,11.7,0,0,0-.3,3.08A7.37,7.37,0,0,0,29.21,23.07Z"/><path class="cls-1" d="M65.67,16.1A11.94,11.94,0,0,1,67.93,12a10.91,10.91,0,0,1,3.74-2.82,11.84,11.84,0,0,1,5-1,13.83,13.83,0,0,1,4.13.58,8.75,8.75,0,0,1,3.21,1.75,8.33,8.33,0,0,1,2.11,2.86A10.42,10.42,0,0,1,87,17.26a15.45,15.45,0,0,1-.6,5,12.18,12.18,0,0,1-2.2,4.21,10.48,10.48,0,0,1-3.7,2.88,12,12,0,0,1-5.18,1.06A10.74,10.74,0,0,1,67.91,28,9.42,9.42,0,0,1,65,21,13.82,13.82,0,0,1,65.67,16.1Zm4.74,7a5.21,5.21,0,0,0,1,1.72A4.53,4.53,0,0,0,73,26a5.5,5.5,0,0,0,2.29.44,5.75,5.75,0,0,0,3.1-.81,7,7,0,0,0,2.14-2.1,9.17,9.17,0,0,0,1.23-2.84,11.22,11.22,0,0,0,.32-3.07,8,8,0,0,0-.36-2.11,4.91,4.91,0,0,0-.92-1.72,4.37,4.37,0,0,0-1.57-1.18,5.35,5.35,0,0,0-2.31-.44,6.09,6.09,0,0,0-3.2.81,6.58,6.58,0,0,0-2.17,2.09,9,9,0,0,0-1.2,2.86A11.3,11.3,0,0,0,70,21,7,7,0,0,0,70.41,23.07Z"/><path class="cls-1" d="M47.25,11.22l.45-2.57A.34.34,0,0,1,48,8.37h9.34A2.24,2.24,0,0,1,59.57,11L56.24,29.87a.34.34,0,0,1-.33.28H51.54a.34.34,0,0,1-.33-.4l2.92-16.57a.66.66,0,0,0-.66-.78H48.24A1,1,0,0,1,47.25,11.22Z"/><path class="cls-1" d="M96.79,8.37a.55.55,0,0,1,.51.32l7.1,14.38,2.54-14.42a.34.34,0,0,1,.33-.28h4.06a.33.33,0,0,1,.32.4l-3.72,21.1a.34.34,0,0,1-.33.28h-4.28a.59.59,0,0,1-.51-.32l-7-14.24L93.25,29.87a.34.34,0,0,1-.33.28h-4a.34.34,0,0,1-.33-.4l3.72-21.1a.34.34,0,0,1,.33-.28Z"/><path class="cls-1" d="M13.55,8.36a21.08,21.08,0,0,1,3.12.21A6,6,0,0,1,19,9.4a5.5,5.5,0,0,1,1.73,1.89,5.06,5.06,0,0,1,.49,2.16A5.34,5.34,0,0,1,21,15.23a4.76,4.76,0,0,1-.78,1.56,4.59,4.59,0,0,1-1.3,1.14,4.4,4.4,0,0,1-1.79.58v.06A4.64,4.64,0,0,1,19.7,20.2a4.86,4.86,0,0,1,1,2.79,6.33,6.33,0,0,1-.59,3.11,6.17,6.17,0,0,1-1.85,2.23,8.39,8.39,0,0,1-2.73,1.34,11.36,11.36,0,0,1-3.28.46H.34A.33.33,0,0,1,0,29.74L3.75,8.63a.33.33,0,0,1,.33-.27ZM11.87,26.41a4.25,4.25,0,0,0,2.8-.88,3.06,3.06,0,0,0,1-2.63,2.39,2.39,0,0,0-.45-1.29,2.66,2.66,0,0,0-1-.8A3.3,3.3,0,0,0,13,20.49q-.7-.06-1.38-.06H6.51l-1.09,6Zm1.06-9.24a3.86,3.86,0,0,0,2.35-.72,2.35,2.35,0,0,0,.92-2.15,2.23,2.23,0,0,0-.86-1.7,2.85,2.85,0,0,0-1.89-.52H8l-.91,5.09Z"/><path class="cls-1" d="M65.22,8.37H62a1,1,0,0,0-1,.83l-.5,2.69a.34.34,0,0,0,.33.39h3.2a1,1,0,0,0,1-.82l.5-2.69A.34.34,0,0,0,65.22,8.37Z"/><path class="cls-1" d="M70.43,4.19h-3.2a1,1,0,0,0-1,.82L65.75,7.7a.34.34,0,0,0,.33.4h3.2a1,1,0,0,0,1-.83l.49-2.69A.33.33,0,0,0,70.43,4.19Z"/><path class="cls-1" d="M66.77,0h-3.2a1,1,0,0,0-1,.82l-.5,2.69a.34.34,0,0,0,.33.4h3.2a1,1,0,0,0,1-.82L67.1.4A.34.34,0,0,0,66.77,0Z"/></g></g></svg>