{
	"asset":{
		"version":"2.0",
		"generator":"Created using the official Cinema 4D glTF Exporter 1.000x284978"
	},
	"accessors":[{
		"bufferView":0,
		"type":"SCALAR",
		"componentType":5123,
		"count":9588,
		"byteOffset":0,
		"min":[0],
		"max":[1599]
	},
	{
		"bufferView":1,
		"type":"VEC3",
		"componentType":5126,
		"count":1600,
		"byteOffset":0,
		"min":[-282.20355224609377,
		-2.6638095378875734,
		-100.33399963378906],
		"max":[282.29327392578127,
		9.782642364501954,
		100.0000228881836]
	}],
	"scenes":[{
		"nodes":[0]
	}],
	"nodes":[{
		"name":"立方体",
		"translation":[0.0,
		0.0,
		0.0],
		"mesh":0,
		"rotation":[0.0,
		0.0,
		0.0,
		-1.0],
		"scale":[1.0,
		1.0,
		1.0]
	}],
	"meshes":[{
		"name":"立方体",
		"primitives":[{
			"attributes":{
				"POSITION":1
			},
			"indices":0,
			"material":0
		}]
	}],
	"bufferViews":[{
		"buffer":0,
		"byteOffset":0,
		"byteLength":19176,
		"target":34963
	},
	{
		"buffer":0,
		"byteOffset":19176,
		"byteLength":19200,
		"target":34962
	}],
	"textures":[{
		"sampler":0,
		"source":0
	}],
	"buffers":[{
		"uri":"data:application/octet-stream;base64,",
		"byteLength":38376
	}],
	"images":[{
		"uri":"data:image/jpeg;base64,"
	}],
	"samplers":[{
		"magFilter":9729,
		"minFilter":9729,
		"wrapS":10497,
		"wrapT":10497
	}],
	"materials":[{
		"pbrMetallicRoughness":{
			"baseColorTexture":{
				"index":0
			},
			"baseColorFactor":[0.8,
			0.8,
			0.8,
			1.0],
			"metallicFactor":0.0,
			"roughnessFactor":0.5
		},
		"emissiveFactor":[0.0,
		0.0,
		0.0],
		"alphaMode":"OPAQUE",
		"doubleSided":false,
		"name":"材质"
	}]
}