{
	"meshes":[{
		"name":"14 数字化输送带.STEP-黑塑料",
		"primitives":[{
			"attributes":{
				"POSITION":1,
				"TEXCOORD_0":2
			},
			"indices":0,
			"material":0
		}]
	},
	{
		"name":"14 数字化输送带.STEP-钢3",
		"primitives":[{
			"attributes":{
				"POSITION":4,
				"TEXCOORD_0":5
			},
			"indices":3,
			"material":1
		}]
	},
	{
		"name":"14 数字化输送带.STEP-灰塑料",
		"primitives":[{
			"attributes":{
				"POSITION":7,
				"TEXCOORD_0":8
			},
			"indices":6,
			"material":2
		}]
	},
	{
		"name":"14 数字化输送带.STEP-灰塑料2",
		"primitives":[{
			"attributes":{
				"POSITION":10,
				"TEXCOORD_0":11
			},
			"indices":9,
			"material":3
		}]
	},
	{
		"name":"14 数字化输送带.STEP-灰塑料2",
		"primitives":[{
			"attributes":{
				"POSITION":13,
				"TEXCOORD_0":14
			},
			"indices":12,
			"material":4
		}]
	}],
	"asset":{
		"version":"2.0",
		"generator":"Created using the official Cinema 4D glTF Exporter 1.000x284978"
	},
	"scenes":[{
		"nodes":[0]
	}],
	"nodes":[{
		"name":"14 数字化输送带.STEP",
		"translation":[15.228875160217286,
		2.521125078201294,
		2.0],
		"rotation":[0.0,
		0.0,
		0.0,
		-1.0],
		"scale":[10.0,
		10.0,
		10.0],
		"children":[1,
		2,
		3,
		4,
		5]
	},
	{
		"name":"14 数字化输送带.STEP-黑塑料",
		"translation":[0.0,
		0.0,
		0.0],
		"rotation":[0.0,
		0.0,
		0.0,
		-1.0],
		"mesh":0,
		"scale":[1.0,
		1.0,
		1.0]
	},
	{
		"name":"14 数字化输送带.STEP-钢3",
		"translation":[0.0,
		0.0,
		0.0],
		"rotation":[0.0,
		0.0,
		0.0,
		-1.0],
		"mesh":1,
		"scale":[1.0,
		1.0,
		1.0]
	},
	{
		"name":"14 数字化输送带.STEP-灰塑料",
		"translation":[0.0,
		0.0,
		0.0],
		"rotation":[0.0,
		0.0,
		0.0,
		-1.0],
		"mesh":2,
		"scale":[1.0,
		1.0,
		1.0]
	},
	{
		"name":"14 数字化输送带.STEP-灰塑料2",
		"translation":[0.0,
		0.0,
		0.0],
		"rotation":[0.0,
		0.0,
		0.0,
		-1.0],
		"mesh":3,
		"scale":[1.0,
		1.0,
		1.0]
	},
	{
		"name":"14 数字化输送带.STEP-灰塑料2",
		"translation":[0.0,
		0.0,
		0.0],
		"rotation":[0.0,
		0.0,
		0.0,
		-1.0],
		"mesh":4,
		"scale":[1.0,
		1.0,
		1.0]
	}],
	"accessors":[{
		"bufferView":0,
		"max":[1775],
		"type":"SCALAR",
		"min":[0],
		"componentType":5123,
		"count":5220,
		"byteOffset":0
	},
	{
		"bufferView":1,
		"max":[22.72887420654297,
		5.436625003814697,
		-4.400000095367432],
		"type":"VEC3",
		"min":[6.813374996185303,
		-10.478875160217286,
		-6.900000095367432],
		"componentType":5126,
		"count":1776,
		"byteOffset":0
	},
	{
		"bufferView":1,
		"max":[1.0,
		1.0],
		"type":"VEC2",
		"min":[0.0,
		-1.4135796690526078e-16],
		"componentType":5126,
		"count":1776,
		"byteOffset":12
	},
	{
		"bufferView":2,
		"max":[1456],
		"type":"SCALAR",
		"min":[0],
		"componentType":5123,
		"count":3996,
		"byteOffset":0
	},
	{
		"bufferView":3,
		"max":[16.02112579345703,
		-1.271125078201294,
		1.2999999523162842],
		"type":"VEC3",
		"min":[13.521124839782715,
		-3.771125078201294,
		-9.100000381469727],
		"componentType":5126,
		"count":1457,
		"byteOffset":0
	},
	{
		"bufferView":3,
		"max":[1.0,
		1.0],
		"type":"VEC2",
		"min":[-2.421323724339933e-15,
		-7.856633095840171e-14],
		"componentType":5126,
		"count":1457,
		"byteOffset":12
	},
	{
		"bufferView":4,
		"max":[856],
		"type":"SCALAR",
		"min":[0],
		"componentType":5123,
		"count":2376,
		"byteOffset":0
	},
	{
		"bufferView":5,
		"max":[8.771124839782715,
		-0.27112501859664919,
		-0.699999988079071],
		"type":"VEC3",
		"min":[-17.47887420654297,
		-4.771124839782715,
		-3.299999952316284],
		"componentType":5126,
		"count":857,
		"byteOffset":0
	},
	{
		"bufferView":5,
		"max":[1.0,
		1.0],
		"type":"VEC2",
		"min":[0.0,
		-7.350614596710915e-15],
		"componentType":5126,
		"count":857,
		"byteOffset":12
	},
	{
		"bufferView":6,
		"max":[2003],
		"type":"SCALAR",
		"min":[0],
		"componentType":5123,
		"count":5460,
		"byteOffset":0
	},
	{
		"bufferView":7,
		"max":[19.27112579345703,
		10.478875160217286,
		10.699999809265137],
		"type":"VEC3",
		"min":[-22.72887420654297,
		-5.521124839782715,
		-10.699999809265137],
		"componentType":5126,
		"count":2004,
		"byteOffset":0
	},
	{
		"bufferView":7,
		"max":[1.0,
		1.0],
		"type":"VEC2",
		"min":[-1.7763568394002506e-15,
		-4.7369512893896858e-15],
		"componentType":5126,
		"count":2004,
		"byteOffset":12
	},
	{
		"bufferView":8,
		"max":[18290],
		"type":"SCALAR",
		"min":[0],
		"componentType":5123,
		"count":57360,
		"byteOffset":0
	},
	{
		"bufferView":9,
		"max":[20.77112579345703,
		2.1288750171661379,
		9.699999809265137],
		"type":"VEC3",
		"min":[-22.52887535095215,
		-5.521124839782715,
		-10.5],
		"componentType":5126,
		"count":18291,
		"byteOffset":0
	},
	{
		"bufferView":9,
		"max":[1.0,
		1.0],
		"type":"VEC2",
		"min":[-1.1445829161305273e-15,
		-9.046909881936689e-15],
		"componentType":5126,
		"count":18291,
		"byteOffset":12
	}],
	"bufferViews":[{
		"buffer":0,
		"byteOffset":0,
		"byteLength":10440,
		"target":34963
	},
	{
		"buffer":0,
		"byteOffset":10440,
		"byteLength":35520,
		"target":34962,
		"byteStride":20
	},
	{
		"buffer":1,
		"byteOffset":0,
		"byteLength":7992,
		"target":34963
	},
	{
		"buffer":1,
		"byteOffset":7992,
		"byteLength":29140,
		"target":34962,
		"byteStride":20
	},
	{
		"buffer":2,
		"byteOffset":0,
		"byteLength":4752,
		"target":34963
	},
	{
		"buffer":2,
		"byteOffset":4752,
		"byteLength":17140,
		"target":34962,
		"byteStride":20
	},
	{
		"buffer":3,
		"byteOffset":0,
		"byteLength":10920,
		"target":34963
	},
	{
		"buffer":3,
		"byteOffset":10920,
		"byteLength":40080,
		"target":34962,
		"byteStride":20
	},
	{
		"buffer":4,
		"byteOffset":0,
		"byteLength":114720,
		"target":34963
	},
	{
		"buffer":4,
		"byteOffset":114720,
		"byteLength":365820,
		"target":34962,
		"byteStride":20
	}],
	"materials":[{
		"pbrMetallicRoughness":{
			"baseColorFactor":[0.1,
			0.1,
			0.1,
			1.0],
			"metallicFactor":0.02,
			"roughnessFactor":0.36
		},
		"emissiveFactor":[0.0,
		0.0,
		0.0],
		"alphaMode":"OPAQUE",
		"doubleSided":true,
		"name":"黑塑料"
	},
	{
		"pbrMetallicRoughness":{
			"baseColorFactor":[0.8200000000000001,
			0.8200000000000001,
			0.8200000000000001,
			1.0],
			"metallicFactor":0.64,
			"roughnessFactor":0.25
		},
		"emissiveFactor":[0.0,
		0.0,
		0.0],
		"alphaMode":"OPAQUE",
		"doubleSided":true,
		"name":"钢3"
	},
	{
		"pbrMetallicRoughness":{
			"baseColorFactor":[0.39,
			0.39,
			0.39,
			1.0],
			"metallicFactor":0.0,
			"roughnessFactor":0.5
		},
		"emissiveFactor":[0.0,
		0.0,
		0.0],
		"alphaMode":"OPAQUE",
		"doubleSided":true,
		"name":"灰塑料"
	},
	{
		"pbrMetallicRoughness":{
			"baseColorFactor":[0.47000000000000005,
			0.47000000000000005,
			0.47000000000000005,
			1.0],
			"metallicFactor":0.0,
			"roughnessFactor":0.5
		},
		"emissiveFactor":[0.0,
		0.0,
		0.0],
		"alphaMode":"OPAQUE",
		"doubleSided":true,
		"name":"灰塑料2"
	},
	{
		"pbrMetallicRoughness":{
			"baseColorFactor":[0.54,
			0.54,
			0.54,
			1.0],
			"metallicFactor":0.0,
			"roughnessFactor":0.5
		},
		"emissiveFactor":[0.0,
		0.0,
		0.0],
		"alphaMode":"OPAQUE",
		"doubleSided":true,
		"name":"灰塑料2"
	}],
	"buffers":[{
		"uri":"data:application/octet-stream;base64,",
		"byteLength":45960
	},
	{
		"uri":"data:application/octet-stream;base64,",
		"byteLength":37132
	},
	{
		"uri":"data:application/octet-stream;base64,",
		"byteLength":21892
	},
	{
		"uri":"data:application/octet-stream;base64,",
		"byteLength":51000
	},
	{
		"uri":"data:application/octet-stream;base64,",
		"byteLength":480540
	}]
}